<?xml version="1.0" encoding="UTF-8"?>
<svg version="1.1" xmlns="http://www.w3.org/2000/svg" width="342" height="293">
<path d="M0 0 C112.86 0 225.72 0 342 0 C342 96.69 342 193.38 342 293 C229.14 293 116.28 293 0 293 C0 196.31 0 99.62 0 0 Z " fill="#002B4E" transform="translate(0,0)"/>
<path d="M0 0 C2.75708008 1.60375977 2.75708008 1.60375977 5.76953125 3.69140625 C6.31959335 4.06783264 6.86965546 4.44425903 7.43638611 4.83209229 C9.85757145 6.49288314 12.26227429 8.17676776 14.66638184 9.8621521 C16.55777588 11.18757432 18.45169175 12.50924915 20.34765625 13.828125 C21.30011734 14.49138542 21.30011734 14.49138542 22.27182007 15.16804504 C26.45719315 18.04429822 30.73090915 20.60961073 35.18359375 23.046875 C50.89138149 31.90110153 50.89138149 31.90110153 53.01367188 37.83349609 C54.01616795 44.33620144 53.38092981 50.59815102 52 57 C51.00613281 56.84015625 50.01226562 56.6803125 48.98828125 56.515625 C30.65936954 54.24613955 9.94115847 54.66373303 -8 59 C-8.83354004 59.19867676 -9.66708008 59.39735352 -10.52587891 59.60205078 C-24.5415241 63.04979103 -37.55632341 68.14169239 -50.37890625 74.73828125 C-53 76 -53 76 -55 76 C-55 67.42 -55 58.84 -55 50 C-61.6 50 -68.2 50 -75 50 C-69.38095238 44.38095238 -69.38095238 44.38095238 -66.64453125 42.5625 C-65.72559082 41.94314575 -65.72559082 41.94314575 -64.78808594 41.3112793 C-63.8101709 40.66219604 -63.8101709 40.66219604 -62.8125 40 C-56.88233479 35.99515079 -51.03536943 31.89881472 -45.25 27.6875 C-37.89474594 22.34106751 -30.47525519 17.09386435 -23.00268555 11.91259766 C-19.44081329 9.43761895 -15.8991151 6.95999945 -12.46875 4.3046875 C-11.03015625 3.19480469 -11.03015625 3.19480469 -9.5625 2.0625 C-8.78003906 1.43472656 -7.99757813 0.80695312 -7.19140625 0.16015625 C-4.26457065 -1.38934495 -3.15293849 -0.92982858 0 0 Z " fill="#17BBE7" transform="translate(142,60)"/>
<path d="M0 0 C1.61450132 1.36354363 3.21995514 2.73778979 4.82324219 4.11450195 C2.9863183 8.11824626 0.33206302 10.8340813 -2.80175781 13.86450195 C-3.31738281 14.37110352 -3.83300781 14.87770508 -4.36425781 15.3996582 C-5.6305912 16.64254097 -6.90307221 17.87915471 -8.17675781 19.11450195 C-11.43172756 17.65639333 -13.84970444 15.80423027 -16.55175781 13.48950195 C-37.56351392 -3.49807279 -64.57142866 -12.28415698 -91.35717773 -12.20117188 C-93.47660108 -12.19801689 -95.59461542 -12.22155317 -97.71386719 -12.24682617 C-110.13793005 -12.30537034 -122.03030652 -10.48466529 -133.73925781 -6.13549805 C-134.4441333 -5.87800781 -135.14900879 -5.62051758 -135.87524414 -5.35522461 C-151.05919879 0.34025404 -163.85205983 8.68305577 -176.17675781 19.11450195 C-180.20757781 17.50217395 -182.93619918 14.652156 -185.92675781 11.61450195 C-186.43335938 11.11563477 -186.93996094 10.61676758 -187.46191406 10.1027832 C-191.17675781 6.36791334 -191.17675781 6.36791334 -191.17675781 4.11450195 C-139.04882573 -46.17107078 -54.47154146 -45.35730779 0 0 Z " fill="#13B1E6" transform="translate(261.1767578125,163.885498046875)"/>
<path d="M0 0 C3.71889266 1.36702378 6.57300481 3.41427086 9.65234375 5.83984375 C10.95736979 6.83371117 12.2647872 7.82444412 13.57421875 8.8125 C14.62125977 9.60358154 14.62125977 9.60358154 15.68945312 10.41064453 C19.84823532 13.4797544 24.12753677 16.37315604 28.40234375 19.27734375 C29.24949951 19.85387695 30.09665527 20.43041016 30.96948242 21.02441406 C32.96647879 22.38170407 34.96543968 23.736103 36.96484375 25.08984375 C36.96484375 21.45984375 36.96484375 17.82984375 36.96484375 14.08984375 C43.56484375 14.08984375 50.16484375 14.08984375 56.96484375 14.08984375 C56.74248047 16.66152344 56.74248047 16.66152344 56.515625 19.28515625 C55.63149075 31.41090983 55.63149075 31.41090983 59.60302734 42.50195312 C63.93710264 46.7282156 69.0707961 49.67277238 74.34179688 52.58837891 C78.51463892 54.97696589 82.33376183 57.8233309 86.21484375 60.65234375 C87.55121877 61.59422748 88.88966139 62.53318666 90.23046875 63.46875 C90.84728516 63.90203613 91.46410156 64.33532227 92.09960938 64.78173828 C93.39803373 65.69233484 94.69901404 66.59929317 96.00195312 67.50341797 C97.67376548 68.67427351 99.32185012 69.87888083 100.96484375 71.08984375 C100.96484375 71.41984375 100.96484375 71.74984375 100.96484375 72.08984375 C94.36484375 72.08984375 87.76484375 72.08984375 80.96484375 72.08984375 C80.96484375 80.99984375 80.96484375 89.90984375 80.96484375 99.08984375 C76.97573728 97.49420116 73.19963008 95.77232892 69.33984375 93.90234375 C63.28367422 91.0252417 57.13023875 88.53322037 50.83984375 86.21484375 C50.03466309 85.91682861 49.22948242 85.61881348 48.39990234 85.31176758 C44.59410744 83.93400088 40.95479524 82.82563494 36.96484375 82.08984375 C37.01310303 81.20312988 37.0613623 80.31641602 37.11108398 79.40283203 C38.34509855 63.80222156 38.34509855 63.80222156 34.89648438 48.94628906 C31.8606081 45.6409952 27.75167633 44.17064234 23.69433594 42.43652344 C18.33106798 39.79038873 13.5165803 36.16897558 8.62319946 32.74987793 C5.67777004 30.69935066 2.70593696 28.68816235 -0.265625 26.67578125 C-0.82822525 26.29369507 -1.3908255 25.91160889 -1.97047424 25.51794434 C-7.63515148 21.67317455 -13.33157486 17.87661044 -19.03515625 14.08984375 C-17.04830444 9.58227857 -14.20148433 7.58917021 -10.28515625 4.77734375 C-9.67671875 4.31005859 -9.06828125 3.84277344 -8.44140625 3.36132812 C-5.45877314 1.20401764 -3.74394403 0.1108246 0 0 Z " fill="#1ABFE8" transform="translate(169.03515625,37.91015625)"/>
<path d="M0 0 C-1.61010527 4.07376031 -4.53822271 6.76507069 -7.625 9.75 C-8.140625 10.25660156 -8.65625 10.76320312 -9.1875 11.28515625 C-10.45383339 12.52803902 -11.7263144 13.76465276 -13 15 C-16.31756213 13.49756382 -18.94915404 11.55127587 -21.8125 9.3125 C-40.452297 -4.34511722 -63.96631818 -9.67691906 -86.77734375 -6.46875 C-89.90521701 -5.77113948 -92.93825749 -4.94458013 -96 -4 C-96.99 -3.7215625 -97.98 -3.443125 -99 -3.15625 C-110.32902144 0.26605856 -120.12528721 5.77745722 -129.07421875 13.49609375 C-131 15 -131 15 -133 15 C-134.515625 13.42578125 -134.515625 13.42578125 -136.25 11.3125 C-139.25954469 7.76035397 -142.33524535 4.86029631 -146 2 C-142.9729278 -7.0812166 -128.16248421 -13.45910772 -120.10888672 -17.65258789 C-113.24632341 -21.07836076 -106.47489566 -23.25459289 -99 -25 C-97.32164062 -25.51046875 -97.32164062 -25.51046875 -95.609375 -26.03125 C-61.72999032 -35.12441818 -25.83228589 -21.65294842 0 0 Z " fill="#0FA9E6" transform="translate(241,194)"/>
<path d="M0 0 C0.88244385 0.00749268 1.7648877 0.01498535 2.67407227 0.02270508 C20.03991984 0.31034149 34.32947543 6.78372261 48.0625 17.25 C46.45239473 21.32376031 43.52427729 24.01507069 40.4375 27 C39.921875 27.50660156 39.40625 28.01320312 38.875 28.53515625 C37.60866661 29.77803902 36.3361856 31.01465276 35.0625 32.25 C32.65630618 31.05881494 30.27081293 29.83660675 27.890625 28.59375 C26.6980152 27.97897548 25.50530431 27.36439705 24.3125 26.75 C22.55679688 25.83734375 22.55679688 25.83734375 20.765625 24.90625 C10.61716238 20.08468032 -1.80839411 19.4996505 -12.64453125 22.16015625 C-19.53303739 24.70146753 -25.81075099 28.22543124 -31.9375 32.25 C-32.78054687 31.39535156 -33.62359375 30.54070312 -34.4921875 29.66015625 C-35.59882593 28.54413953 -36.70560402 27.42826128 -37.8125 26.3125 C-38.36808594 25.74853516 -38.92367187 25.18457031 -39.49609375 24.60351562 C-42.4296571 21.55139972 -42.4296571 21.55139972 -45.9375 19.25 C-45.9375 18.59 -45.9375 17.93 -45.9375 17.25 C-32.70269326 6.2576356 -17.26849147 -0.19395349 0 0 Z " fill="#0AA2E6" transform="translate(166.9375,202.75)"/>
<path d="M0 0 C4.44171425 2.55584675 7.60935925 5.32711299 9.72265625 10.08203125 C10.47809272 15.28352611 10.53761403 20.26263877 8.09765625 25.01953125 C4.88680884 29.15983449 1.6787265 31.43000783 -3.27734375 33.08203125 C-7.88794587 33.61773931 -11.33065571 33.55537527 -15.52734375 31.45703125 C-23.86424647 24.2569789 -23.86424647 24.2569789 -24.55078125 18.98046875 C-24.81611517 12.38794131 -23.76802308 8.02861711 -19.27734375 3.08203125 C-13.90896746 -1.74133222 -6.67090837 -2.68895963 0 0 Z " fill="#069AE6" transform="translate(175.27734375,238.91796875)"/>
</svg>
